<?xml version="1.0" ?><svg id="Layer_1" style="enable-background:new 0 0 512 512;" version="1.1" viewBox="0 0 512 512" xml:space="preserve" xmlns="http://www.w3.org/2000/svg" xmlns:xlink="http://www.w3.org/1999/xlink"><style type="text/css">
	.st0{fill:none;stroke:#000000;stroke-width:12;stroke-linecap:round;stroke-miterlimit:10;}
</style><g><path class="st0" d="M324.8,115.2c33.4-14.7,66.9-29.3,100.3-44c2-0.9,4-1.7,6-2.5c1.2,0,2.4,0,3.7,0c4.1,1.4,6.9,4.3,8.8,8.1   c0,1.7,0,3.4,0,5.1c-24.9,57.4-49.8,114.9-74.7,172.3c-26,60-52.1,120.1-78,180.1c-1.9,4.5-4.5,8-9.2,9.6c-1.2,0-2.4,0-3.7,0   c-4.5-1.3-7.2-4.6-9.5-8.5c-5.6-9.5-11.1-19-16.7-28.5"/><path class="st0" d="M231.6,372.6c-10.9-18.5-21.8-36.9-32.7-55.4c-1.2-2.1-3.2-4-5.3-5.2c-38.8-22.1-77.6-44.1-116.4-66.1   c-3.8-2.2-7.1-4.6-8.9-8.7c0-1.7,0-3.4,0-5.1c1.8-4.7,5.5-7,9.9-9c64.6-28.3,129.2-56.6,193.9-84.9"/><path class="st0" d="M298,127c0.5-0.2-0.2,0.6,0.4,0.3"/><path d="M194.9,315.2L194.9,315.2c-2.3-2.3-2.3-6.2,0-8.5L431.8,69.8c2.3-2.3,6.2-2.3,8.5,0v0c2.3,2.3,2.3,6.2,0,8.5L203.4,315.2   C201,317.5,197.2,317.5,194.9,315.2z"/></g></svg>